#N canvas 0 23 1280 517 10;
#X obj 122 350 route /wek/outputs;
#X obj 444 307 sel 1, f 34;
#X msg 444 328 /wekinator/control/startRunning;
#X msg 645 328 /wekinator/control/stopRunning;
#X msg 1347 328 /wekinator/control/train;
#X obj 122 453 outlet;
#X msg 122 287 port \$1;
#X floatatom 211 205 7 0 0 0 - - -;
#N canvas 0 23 212 193 initMemory 0;
#X obj 87 32 inlet;
#X obj 28 32 loadbang;
#X msg 87 57 set \$1;
#X msg 87 78 12001;
#X obj 87 99 outlet;
#X connect 0 0 2 0;
#X connect 1 0 3 0;
#X connect 2 0 3 0;
#X connect 3 0 4 0;
#X restore 20 205 pd initMemory;
#X text 129 205 Incoming Port;
#X obj 334 351 t f b;
#X msg 361 375 disconnect;
#X floatatom 211 225 6 0 0 0 - - -;
#X msg 334 400 connect localhost \$1;
#N canvas 0 23 212 193 initMemory 0;
#X obj 87 32 inlet;
#X obj 28 32 loadbang;
#X msg 87 57 set \$1;
#X msg 87 78 6449;
#X obj 87 99 outlet;
#X connect 0 0 2 0;
#X connect 1 0 3 0;
#X connect 2 0 3 0;
#X connect 3 0 4 0;
#X restore 20 225 pd initMemory;
#X text 129 225 Outgoing Port;
#X obj 400 174 bng 15 250 50 0 empty empty empty 17 7 0 10 -262144
-4032 -1;
#X text 366 174 Train;
#X obj 320 174 tgl 15 0 empty empty empty 17 7 0 10 -262144 -258113
-1 0 1;
#X text 280 174 Record;
#X obj 240 174 tgl 15 0 empty empty empty 17 7 0 10 -262144 -4034 -1
0 1;
#X obj 239 13 loadbang;
#X msg 239 34 0;
#X text 218 174 Run;
#X obj 122 387 spigot;
#X obj 299 430 r micData;
#X obj 470 35 del 10000;
#X obj 396 65 fabricData;
#X obj 122 329 osc/unpackOSC;
#X obj 122 308 iemnet/udpreceive 12000;
#X obj 122 415 cyclone/speedlim 10;
#X text 260 225 Fabric Type;
#X obj 333 225 hsl 128 15 0 1 0 0 empty empty empty -2 -8 0 10 -262144
-1 -1 0 1;
#X text 330 211 smooth;
#X text 429 211 rough;
#X msg 842 327 /wekinator/control/startDtwRecording \$1;
#X msg 1095 328 /wekinator/control/stopDtwRecording \$1;
#X msg 842 287 set \$1;
#X msg 842 307 0;
#X obj 940 181 r trigger;
#X obj 940 202 change;
#X obj 940 223 sel 1;
#X msg 1095 307 0;
#X obj 721 290 spigot;
#X obj 334 453 osc/packOSC;
#X obj 334 474 iemnet/udpsend;
#X obj 470 65 ironADC_v4~;
#X connect 0 0 24 0;
#X connect 1 0 2 0;
#X connect 1 1 3 0;
#X connect 2 0 44 0;
#X connect 3 0 44 0;
#X connect 4 0 44 0;
#X connect 6 0 29 0;
#X connect 7 0 6 0;
#X connect 7 0 8 0;
#X connect 8 0 7 0;
#X connect 10 0 13 0;
#X connect 10 1 11 0;
#X connect 11 0 45 0;
#X connect 12 0 10 0;
#X connect 12 0 14 0;
#X connect 13 0 45 0;
#X connect 14 0 12 0;
#X connect 16 0 4 0;
#X connect 18 0 43 1;
#X connect 20 0 1 0;
#X connect 20 0 24 1;
#X connect 21 0 22 0;
#X connect 21 0 26 0;
#X connect 22 0 20 0;
#X connect 22 0 18 0;
#X connect 22 0 46 0;
#X connect 24 0 30 0;
#X connect 25 0 45 0;
#X connect 26 0 46 0;
#X connect 28 0 0 0;
#X connect 29 0 28 0;
#X connect 30 0 5 0;
#X connect 30 0 32 0;
#X connect 32 0 43 0;
#X connect 35 0 44 0;
#X connect 36 0 44 0;
#X connect 37 0 38 0;
#X connect 37 0 42 0;
#X connect 38 0 35 0;
#X connect 39 0 40 0;
#X connect 40 0 41 0;
#X connect 41 0 38 0;
#X connect 41 1 42 0;
#X connect 42 0 36 0;
#X connect 43 0 37 0;
#X connect 44 0 45 0;
#X coords 0 -1 1 1 650 185 1 120 60;
