#N canvas 0 23 944 376 10;
#X obj 874 246 key;
#X obj 874 273 sel 32;
#X msg 874 297 clear;
#X obj 792 248 outlet~;
#N canvas 188 75 1286 482 matrixMult 0;
#X obj 37 38 inlet~;
#X obj 36 435 outlet~;
#X obj 107 80 *~ 1;
#X obj 97 120 *~ 1;
#X obj 87 160 *~ 1;
#X obj 77 200 *~ 1;
#X obj 67 240 *~ 1;
#X obj 57 280 *~ 1;
#X obj 47 320 *~ 1;
#X obj 37 360 *~ 1;
#X obj 197 38 inlet~;
#X obj 196 435 outlet~;
#X obj 267 80 *~ 1;
#X obj 247 160 *~ 1;
#X obj 227 240 *~ 1;
#X obj 207 320 *~ 1;
#X obj 357 38 inlet~;
#X obj 356 435 outlet~;
#X obj 427 80 *~ 1;
#X obj 417 120 *~ 1;
#X obj 387 240 *~ 1;
#X obj 377 280 *~ 1;
#X obj 517 38 inlet~;
#X obj 516 435 outlet~;
#X obj 587 80 *~ 1;
#X obj 557 200 *~ 1;
#X obj 517 360 *~ 1;
#X obj 677 38 inlet~;
#X obj 676 435 outlet~;
#X obj 747 80 *~ 1;
#X obj 737 120 *~ 1;
#X obj 727 160 *~ 1;
#X obj 717 200 *~ 1;
#X obj 837 38 inlet~;
#X obj 836 435 outlet~;
#X obj 907 80 *~ 1;
#X obj 887 160 *~ 1;
#X obj 857 280 *~ 1;
#X obj 837 360 *~ 1;
#X obj 997 38 inlet~;
#X obj 996 435 outlet~;
#X obj 1067 80 *~ 1;
#X obj 1057 120 *~ 1;
#X obj 1007 320 *~ 1;
#X obj 997 360 *~ 1;
#X obj 1157 38 inlet~;
#X obj 1156 435 outlet~;
#X obj 1227 80 *~ 1;
#X obj 1197 200 *~ 1;
#X obj 1177 280 *~ 1;
#X obj 1167 320 *~ 1;
#X obj 257 120 *~ -1;
#X obj 237 200 *~ -1;
#X obj 217 280 *~ -1;
#X obj 197 360 *~ -1;
#X obj 407 160 *~ -1;
#X obj 397 200 *~ -1;
#X obj 367 320 *~ -1;
#X obj 357 360 *~ -1;
#X obj 577 120 *~ -1;
#X obj 567 160 *~ -1;
#X obj 537 280 *~ -1;
#X obj 527 320 *~ -1;
#X obj 547 240 *~ 1;
#X obj 707 240 *~ -1;
#X obj 697 280 *~ -1;
#X obj 687 320 *~ -1;
#X obj 677 360 *~ -1;
#X obj 897 120 *~ -1;
#X obj 877 200 *~ -1;
#X obj 867 240 *~ -1;
#X obj 847 320 *~ -1;
#X obj 1047 160 *~ -1;
#X obj 1037 200 *~ -1;
#X obj 1027 240 *~ -1;
#X obj 1017 280 *~ -1;
#X obj 1217 120 *~ -1;
#X obj 1207 160 *~ -1;
#X obj 1187 240 *~ -1;
#X obj 1157 360 *~ -1;
#X connect 0 0 2 0;
#X connect 0 0 3 0;
#X connect 0 0 4 0;
#X connect 0 0 5 0;
#X connect 0 0 6 0;
#X connect 0 0 7 0;
#X connect 0 0 8 0;
#X connect 0 0 9 0;
#X connect 2 0 1 0;
#X connect 3 0 11 0;
#X connect 4 0 17 0;
#X connect 5 0 23 0;
#X connect 6 0 28 0;
#X connect 7 0 34 0;
#X connect 8 0 40 0;
#X connect 9 0 46 0;
#X connect 10 0 12 0;
#X connect 10 0 13 0;
#X connect 10 0 14 0;
#X connect 10 0 15 0;
#X connect 10 0 51 0;
#X connect 10 0 52 0;
#X connect 10 0 53 0;
#X connect 10 0 54 0;
#X connect 12 0 1 0;
#X connect 13 0 17 0;
#X connect 14 0 28 0;
#X connect 15 0 40 0;
#X connect 16 0 18 0;
#X connect 16 0 19 0;
#X connect 16 0 20 0;
#X connect 16 0 21 0;
#X connect 16 0 55 0;
#X connect 16 0 56 0;
#X connect 16 0 57 0;
#X connect 16 0 58 0;
#X connect 18 0 1 0;
#X connect 19 0 11 0;
#X connect 20 0 28 0;
#X connect 21 0 34 0;
#X connect 22 0 24 0;
#X connect 22 0 25 0;
#X connect 22 0 26 0;
#X connect 22 0 59 0;
#X connect 22 0 60 0;
#X connect 22 0 61 0;
#X connect 22 0 62 0;
#X connect 22 0 63 0;
#X connect 24 0 1 0;
#X connect 25 0 23 0;
#X connect 26 0 46 0;
#X connect 27 0 29 0;
#X connect 27 0 30 0;
#X connect 27 0 31 0;
#X connect 27 0 32 0;
#X connect 27 0 64 0;
#X connect 27 0 65 0;
#X connect 27 0 66 0;
#X connect 27 0 67 0;
#X connect 29 0 1 0;
#X connect 30 0 11 0;
#X connect 31 0 17 0;
#X connect 32 0 23 0;
#X connect 33 0 35 0;
#X connect 33 0 36 0;
#X connect 33 0 37 0;
#X connect 33 0 38 0;
#X connect 33 0 68 0;
#X connect 33 0 69 0;
#X connect 33 0 70 0;
#X connect 33 0 71 0;
#X connect 35 0 1 0;
#X connect 36 0 17 0;
#X connect 37 0 34 0;
#X connect 38 0 46 0;
#X connect 39 0 41 0;
#X connect 39 0 42 0;
#X connect 39 0 43 0;
#X connect 39 0 44 0;
#X connect 39 0 72 0;
#X connect 39 0 73 0;
#X connect 39 0 74 0;
#X connect 39 0 75 0;
#X connect 41 0 1 0;
#X connect 42 0 11 0;
#X connect 43 0 40 0;
#X connect 44 0 46 0;
#X connect 45 0 47 0;
#X connect 45 0 48 0;
#X connect 45 0 49 0;
#X connect 45 0 50 0;
#X connect 45 0 76 0;
#X connect 45 0 77 0;
#X connect 45 0 78 0;
#X connect 45 0 79 0;
#X connect 47 0 1 0;
#X connect 48 0 23 0;
#X connect 49 0 34 0;
#X connect 50 0 40 0;
#X connect 51 0 11 0;
#X connect 52 0 23 0;
#X connect 53 0 34 0;
#X connect 54 0 46 0;
#X connect 55 0 17 0;
#X connect 56 0 23 0;
#X connect 57 0 40 0;
#X connect 58 0 46 0;
#X connect 59 0 11 0;
#X connect 60 0 17 0;
#X connect 61 0 34 0;
#X connect 62 0 40 0;
#X connect 63 0 28 0;
#X connect 64 0 28 0;
#X connect 65 0 34 0;
#X connect 66 0 40 0;
#X connect 67 0 46 0;
#X connect 68 0 11 0;
#X connect 69 0 23 0;
#X connect 70 0 28 0;
#X connect 71 0 40 0;
#X connect 72 0 17 0;
#X connect 73 0 23 0;
#X connect 74 0 28 0;
#X connect 75 0 34 0;
#X connect 76 0 11 0;
#X connect 77 0 17 0;
#X connect 78 0 28 0;
#X connect 79 0 46 0;
#X restore 20 67 pd matrixMult;
#X f 121;
#X msg 860 51 \$1 50;
#X obj 46 172 inlet~;
#X obj 743 133 *~;
#X obj 639 134 *~;
#X obj 536 133 *~;
#X obj 433 134 *~;
#X obj 329 133 *~;
#X obj 226 134 *~;
#X obj 123 133 *~;
#X obj 20 134 *~;
#X obj 860 76 line~;
#X obj 860 31 inlet;
#X obj 123 31 delread~ d18 43;
#X obj 226 31 delread~ d19 59;
#X obj 329 31 delread~ d20 71;
#X obj 433 31 delread~ d21 83;
#X obj 536 31 delread~ d22 101;
#X obj 640 31 delread~ d23 109;
#X obj 743 31 delread~ d24 131;
#X obj 20 329 delwrite~ d17 31;
#X obj 124 329 delwrite~ d18 43;
#X obj 226 328 delwrite~ d19 59;
#X obj 329 329 delwrite~ d20 71;
#X obj 433 329 delwrite~ d21 83;
#X obj 536 329 delwrite~ d22 101;
#X obj 639 329 delwrite~ d23 109;
#X obj 743 329 delwrite~ d24 131;
#X obj 20 31 delread~ d17 31;
#X connect 0 0 1 0;
#X connect 1 0 2 0;
#X connect 2 0 24 0;
#X connect 2 0 25 0;
#X connect 2 0 26 0;
#X connect 2 0 27 0;
#X connect 2 0 28 0;
#X connect 2 0 29 0;
#X connect 2 0 30 0;
#X connect 2 0 31 0;
#X connect 4 0 14 0;
#X connect 4 1 13 0;
#X connect 4 2 12 0;
#X connect 4 3 11 0;
#X connect 4 4 10 0;
#X connect 4 5 9 0;
#X connect 4 6 8 0;
#X connect 4 7 7 0;
#X connect 5 0 15 0;
#X connect 6 0 3 0;
#X connect 6 0 24 0;
#X connect 6 0 25 0;
#X connect 6 0 26 0;
#X connect 6 0 27 0;
#X connect 6 0 28 0;
#X connect 6 0 29 0;
#X connect 6 0 30 0;
#X connect 6 0 31 0;
#X connect 7 0 3 0;
#X connect 7 0 31 0;
#X connect 8 0 3 0;
#X connect 8 0 30 0;
#X connect 9 0 3 0;
#X connect 9 0 29 0;
#X connect 10 0 3 0;
#X connect 10 0 28 0;
#X connect 11 0 3 0;
#X connect 11 0 27 0;
#X connect 12 0 3 0;
#X connect 12 0 26 0;
#X connect 13 0 3 0;
#X connect 13 0 25 0;
#X connect 14 0 3 0;
#X connect 14 0 24 0;
#X connect 15 0 7 1;
#X connect 15 0 8 1;
#X connect 15 0 9 1;
#X connect 15 0 10 1;
#X connect 15 0 11 1;
#X connect 15 0 12 1;
#X connect 15 0 13 1;
#X connect 15 0 14 1;
#X connect 16 0 5 0;
#X connect 17 0 4 1;
#X connect 18 0 4 2;
#X connect 19 0 4 3;
#X connect 20 0 4 4;
#X connect 21 0 4 5;
#X connect 22 0 4 6;
#X connect 23 0 4 7;
#X connect 32 0 4 0;
