#N canvas 126 58 551 471 10;
#X msg 54 221 \; pd dsp \$1;
#X obj 54 184 tgl 15 0 empty empty empty 17 7 0 10 -262144 -4034 -1
1 1;
#X obj 23 351 receive~ ch1;
#X obj 388 351 receive~ ch2;
#X obj 23 377 *~ 0;
#X obj 388 377 *~ 0;
#X obj 137 68 vsl 15 128 0 1 0 1 empty empty empty 0 -9 0 10 -4160
-1 -1 900 1;
#X text 31 184 I/O;
#X obj 24 14 inlet;
#X obj 131 279 s gainExciter;
#X obj 409 323 r gainExciter;
#X obj 131 237 line 0;
#X msg 131 216 \$1 5;
#N canvas 0 23 212 193 initMemory 0;
#X obj 87 32 inlet;
#X obj 28 32 loadbang;
#X msg 87 57 set \$1;
#X obj 87 99 outlet;
#X msg 87 78 50;
#X connect 0 0 2 0;
#X connect 1 0 4 0;
#X connect 2 0 4 0;
#X connect 4 0 3 0;
#X restore 212 161 pd initMemory;
#N canvas 0 23 212 193 initMemory 0;
#X obj 87 32 inlet;
#X obj 28 32 loadbang;
#X msg 87 57 set \$1;
#X obj 87 99 outlet;
#X msg 87 78 15000;
#X connect 0 0 2 0;
#X connect 1 0 4 0;
#X connect 2 0 4 0;
#X connect 4 0 3 0;
#X restore 212 181 pd initMemory;
#X floatatom 53 144 6 0 0 0 - - -;
#X floatatom 53 104 6 0 0 0 - - -;
#X text 37 90 LowCutoff;
#X text 31 130 HighCutoff;
#X obj 57 407 lop~;
#X obj 23 407 hip~;
#X obj 422 407 lop~;
#X obj 388 407 hip~;
#X obj 23 439 dac~ 1 2, f 67;
#X text 132 52 Gain;
#X connect 1 0 0 0;
#X connect 2 0 4 0;
#X connect 3 0 5 0;
#X connect 4 0 20 0;
#X connect 4 0 19 0;
#X connect 5 0 22 0;
#X connect 5 0 21 0;
#X connect 6 0 12 0;
#X connect 8 0 1 0;
#X connect 10 0 5 1;
#X connect 10 0 4 1;
#X connect 11 0 9 0;
#X connect 12 0 11 0;
#X connect 13 0 16 0;
#X connect 14 0 15 0;
#X connect 15 0 14 0;
#X connect 15 0 19 1;
#X connect 15 0 21 1;
#X connect 16 0 13 0;
#X connect 16 0 20 1;
#X connect 16 0 22 1;
#X connect 19 0 23 0;
#X connect 20 0 23 0;
#X connect 21 0 23 1;
#X connect 22 0 23 1;
#X coords 0 -1 1 1 160 175 1 20 35;
