#N canvas 435 42 1280 755 10;
#X obj 416 28 loadbang;
#X obj 276 295 hsl 150 15 0 1 0 0 empty empty empty -2 -8 0 10 -262144
-1 -1 0 1;
#X obj 276 274 hsl 150 15 0 1 0 0 empty empty empty -2 -8 0 10 -262144
-1 -1 0 1;
#X text 251 274 Pan;
#X obj 276 149 hsl 150 15 30 2000 0 0 empty empty empty -2 -8 0 10
-262144 -1 -1 0 1;
#X obj 276 233 hsl 150 15 0 1 0 0 empty empty empty -2 -8 0 10 -262144
-1 -1 0 1;
#X text 209 233 Distortion;
#X msg 416 63 0;
#X obj 276 212 hsl 150 15 0 500 0 0 empty empty empty -2 -8 0 10 -262144
-1 -1 0 1;
#X obj 419 344 s aMod;
#N canvas 192 174 877 513 chorus 1;
#X obj 30 17 inlet~;
#X obj 148 17 loadbang;
#X msg 148 84 1;
#X obj 148 120 phasor~;
#X obj 149 196 cos~;
#X obj 149 217 *~ 2;
#X obj 149 238 +~ 2;
#X obj 149 280 *~ 0.7;
#X obj 273 196 cos~;
#X obj 273 217 *~ 2;
#X obj 273 238 +~ 2;
#X obj 273 280 *~ 0.7;
#X obj 403 196 cos~;
#X obj 403 217 *~ 2;
#X obj 403 238 +~ 2;
#X obj 403 280 *~ 0.7;
#X obj 533 196 cos~;
#X obj 533 217 *~ 2;
#X obj 533 238 +~ 2;
#X obj 533 280 *~ 0.7;
#X obj 273 174 wrap~;
#X obj 273 153 +~ 0.25;
#X obj 403 174 wrap~;
#X obj 533 174 wrap~;
#X obj 403 153 +~ 0.5;
#X obj 533 153 +~ 0.75;
#X obj 30 471 outlet~;
#X obj 30 280 *~ 0.999;
#X obj 613 63 line 0;
#X obj 613 17 inlet;
#X msg 613 40 \$1 10;
#X obj 149 371 delwrite~ del9 100;
#X obj 273 371 delwrite~ del10 100;
#X obj 403 371 delwrite~ del11 100;
#X obj 533 371 delwrite~ del12 100;
#X obj 149 259 vd~ del9;
#X obj 273 259 vd~ del10;
#X obj 403 259 vd~ del11;
#X obj 533 259 vd~ del12;
#X obj 643 253 cyclone/scale 0 1 0 0.95;
#X obj 623 190 cyclone/scale 0 1 0.05 3;
#X obj 613 84 cyclone/scale 0 1 1 10;
#X connect 0 0 27 0;
#X connect 1 0 2 0;
#X connect 2 0 3 0;
#X connect 3 0 21 0;
#X connect 3 0 4 0;
#X connect 3 0 25 0;
#X connect 3 0 24 0;
#X connect 4 0 5 0;
#X connect 5 0 6 0;
#X connect 6 0 35 0;
#X connect 7 0 26 0;
#X connect 7 0 31 0;
#X connect 8 0 9 0;
#X connect 9 0 10 0;
#X connect 10 0 36 0;
#X connect 11 0 26 0;
#X connect 11 0 32 0;
#X connect 12 0 13 0;
#X connect 13 0 14 0;
#X connect 14 0 37 0;
#X connect 15 0 26 0;
#X connect 15 0 33 0;
#X connect 16 0 17 0;
#X connect 17 0 18 0;
#X connect 18 0 38 0;
#X connect 19 0 26 0;
#X connect 19 0 34 0;
#X connect 20 0 8 0;
#X connect 21 0 20 0;
#X connect 22 0 12 0;
#X connect 23 0 16 0;
#X connect 24 0 22 0;
#X connect 25 0 23 0;
#X connect 27 0 26 0;
#X connect 27 0 31 0;
#X connect 27 0 32 0;
#X connect 27 0 33 0;
#X connect 27 0 34 0;
#X connect 28 0 39 0;
#X connect 28 0 40 0;
#X connect 28 0 41 0;
#X connect 29 0 30 0;
#X connect 30 0 28 0;
#X connect 35 0 7 0;
#X connect 36 0 11 0;
#X connect 37 0 15 0;
#X connect 38 0 19 0;
#X connect 39 0 19 1;
#X connect 39 0 15 1;
#X connect 39 0 11 1;
#X connect 39 0 7 1;
#X connect 40 0 17 1;
#X connect 40 0 18 1;
#X connect 40 0 14 1;
#X connect 40 0 13 1;
#X connect 40 0 10 1;
#X connect 40 0 9 1;
#X connect 40 0 6 1;
#X connect 40 0 5 1;
#X connect 41 0 3 0;
#X restore 1617 701 pd chorus;
#X obj 276 191 hsl 150 15 0 1 0 0 empty empty empty -2 -8 0 10 -262144
-1 -1 0 1;
#X text 233 191 Chorus;
#X obj 578 344 s chor;
#X obj 1668 662 r chor;
#X obj 1668 746 r aMod;
#X obj 1704 1029 r pan;
#X obj 368 344 s pan;
#X text 209 149 Frequency;
#X text 185 212 Amp Modulation;
#X obj 464 344 s freq;
#X obj 1617 315 r freq;
#X text 1756 450 ** No processing happens beyond this point if the
photo-resistor sees any light (if the iron is off the board);
#N canvas 0 23 165 238 ampMod 0;
#X obj 30 150 *~, f 9;
#X obj 81 88 osc~ 0;
#X obj 81 109 +~ 1;
#X obj 81 130 /~ 2;
#X msg 81 47 \$1 5;
#X obj 81 68 line 0;
#X obj 81 26 inlet;
#X obj 30 26 inlet~;
#X obj 30 176 outlet~;
#X connect 0 0 8 0;
#X connect 1 0 2 0;
#X connect 2 0 3 0;
#X connect 3 0 0 1;
#X connect 4 0 5 0;
#X connect 5 0 1 0;
#X connect 6 0 4 0;
#X connect 7 0 0 0;
#X restore 1617 785 pd ampMod;
#N canvas 0 23 298 304 LR_xFade 0;
#X obj 125 24 inlet;
#X obj 125 96 * 1.5708;
#X obj 125 49 min 0.999;
#X obj 125 72 max 0.001;
#X obj 125 147 change;
#X obj 218 147 change;
#X obj 125 125 cos;
#X obj 218 125 sin;
#X obj 218 190 line 0;
#X msg 218 169 \$1 5;
#X obj 125 190 line 0;
#X msg 125 169 \$1 5;
#X obj 26 217 *~ 0, f 17;
#X obj 197 217 *~ 0;
#X obj 197 253 outlet~;
#X obj 26 253 outlet~;
#X obj 26 24 inlet~;
#X obj 26 190 *~ 0.999;
#X connect 0 0 2 0;
#X connect 1 0 6 0;
#X connect 1 0 7 0;
#X connect 2 0 3 0;
#X connect 3 0 1 0;
#X connect 4 0 11 0;
#X connect 5 0 9 0;
#X connect 6 0 4 0;
#X connect 7 0 5 0;
#X connect 8 0 13 1;
#X connect 9 0 8 0;
#X connect 10 0 12 1;
#X connect 11 0 10 0;
#X connect 12 0 15 0;
#X connect 13 0 14 0;
#X connect 16 0 17 0;
#X connect 17 0 12 0;
#X connect 17 0 13 0;
#X restore 1617 1050 pd LR_xFade;
#X f 15;
#N canvas 69 242 271 215 masterGain 0;
#X obj 25 24 inlet~;
#X obj 106 24 inlet~;
#X obj 176 90 line 0;
#X msg 176 69 \$1 5;
#N canvas 0 23 142 240 curve 0;
#X obj 46 27 inlet;
#X obj 46 90 * 1.5708;
#X obj 46 48 min 0.999;
#X obj 46 111 cos;
#X obj 46 132 t b f, f 6;
#X msg 46 153 1;
#X obj 46 174 - 0, f 6;
#X obj 46 69 max 0.01;
#X obj 46 197 outlet;
#X connect 0 0 2 0;
#X connect 1 0 3 0;
#X connect 2 0 7 0;
#X connect 3 0 4 0;
#X connect 4 0 5 0;
#X connect 4 1 6 1;
#X connect 5 0 6 0;
#X connect 6 0 8 0;
#X connect 7 0 1 0;
#X restore 176 47 pd curve;
#X obj 176 24 inlet;
#X obj 25 123 *~ 0;
#X obj 106 123 *~ 0;
#X obj 25 159 send~ ch1;
#X obj 106 159 send~ ch2;
#X text 107 176 Exciter_R;
#X text 26 176 Exciter_L;
#X connect 0 0 6 0;
#X connect 1 0 7 0;
#X connect 2 0 7 1;
#X connect 2 0 6 1;
#X connect 3 0 2 0;
#X connect 4 0 3 0;
#X connect 5 0 4 0;
#X connect 6 0 8 0;
#X connect 7 0 9 0;
#X restore 1617 1110 pd masterGain;
#X f 30;
#X text 1547 1111 Master Gain;
#X obj 1794 1089 r gain;
#X obj 273 344 s gain;
#X text 1553 1051 Left/Right;
#N canvas 0 23 174 180 killSwitch 0;
#X obj 94 69 line 0;
#X msg 94 48 \$1 250;
#X obj 31 102 *~ 0, f 11;
#X obj 31 26 inlet~;
#X obj 94 26 inlet;
#X obj 31 69 *~ 0.999;
#X obj 31 134 outlet~;
#X connect 0 0 2 1;
#X connect 1 0 0 0;
#X connect 2 0 6 0;
#X connect 3 0 5 0;
#X connect 4 0 1 0;
#X connect 5 0 2 0;
#X restore 1617 529 pd killSwitch;
#X f 20;
#N canvas 475 185 805 493 additiveGuitar 0;
#X obj 31 30 inlet;
#X obj 31 132 * 1;
#X obj 31 174 osc~;
#X obj 31 345 *~, f 7;
#X obj 31 366 *~ 1;
#X msg 69 240 0.2;
#X obj 69 261 osc~;
#X obj 69 303 +~ 1;
#X obj 70 324 /~ 2;
#X obj 69 282 *~ 1;
#X obj 131 174 osc~;
#X obj 131 345 *~, f 7;
#X obj 169 261 osc~;
#X obj 169 303 +~ 1;
#X obj 170 324 /~ 2;
#X obj 169 282 *~ 1;
#X obj 231 174 osc~;
#X obj 231 345 *~, f 7;
#X obj 269 261 osc~;
#X obj 269 303 +~ 1;
#X obj 270 324 /~ 2;
#X obj 269 282 *~ 1;
#X obj 331 174 osc~;
#X obj 331 345 *~, f 7;
#X obj 369 261 osc~;
#X obj 369 303 +~ 1;
#X obj 370 324 /~ 2;
#X obj 369 282 *~ 1;
#X obj 431 174 osc~;
#X obj 431 345 *~, f 7;
#X obj 469 261 osc~;
#X obj 469 303 +~ 1;
#X obj 470 324 /~ 2;
#X obj 469 282 *~ 1;
#X obj 531 174 osc~;
#X obj 531 345 *~, f 7;
#X obj 569 261 osc~;
#X obj 569 303 +~ 1;
#X obj 570 324 /~ 2;
#X obj 569 282 *~ 1;
#X obj 131 132 * 2;
#X obj 231 132 * 3;
#X obj 331 132 * 5;
#X obj 431 132 * 6;
#X obj 531 132 * 7;
#X obj 131 366 *~ 0.25;
#X obj 231 366 *~ 0.11;
#X obj 331 366 *~ 0.04;
#X obj 431 366 *~ 0.028;
#X obj 531 366 *~ 0.0204;
#X obj 31 431 outlet~;
#X msg 169 240 0.25;
#X msg 269 240 0.3;
#X msg 369 240 0.5;
#X msg 469 240 0.55;
#X msg 569 240 0.75;
#X msg 31 52 \$1 5;
#X obj 31 73 line 0;
#X obj 720 39 loadbang;
#X msg 152 154 90;
#X msg 552 154 90;
#X msg 252 154 180;
#X msg 352 154 270;
#X connect 0 0 56 0;
#X connect 1 0 2 0;
#X connect 2 0 3 0;
#X connect 3 0 4 0;
#X connect 4 0 50 0;
#X connect 5 0 6 0;
#X connect 6 0 9 0;
#X connect 7 0 8 0;
#X connect 8 0 3 1;
#X connect 9 0 7 0;
#X connect 10 0 11 0;
#X connect 11 0 45 0;
#X connect 12 0 15 0;
#X connect 13 0 14 0;
#X connect 14 0 11 1;
#X connect 15 0 13 0;
#X connect 16 0 17 0;
#X connect 17 0 46 0;
#X connect 18 0 21 0;
#X connect 19 0 20 0;
#X connect 20 0 17 1;
#X connect 21 0 19 0;
#X connect 22 0 23 0;
#X connect 23 0 47 0;
#X connect 24 0 27 0;
#X connect 25 0 26 0;
#X connect 26 0 23 1;
#X connect 27 0 25 0;
#X connect 28 0 29 0;
#X connect 29 0 48 0;
#X connect 30 0 33 0;
#X connect 31 0 32 0;
#X connect 32 0 29 1;
#X connect 33 0 31 0;
#X connect 34 0 35 0;
#X connect 35 0 49 0;
#X connect 36 0 39 0;
#X connect 37 0 38 0;
#X connect 38 0 35 1;
#X connect 39 0 37 0;
#X connect 40 0 10 0;
#X connect 41 0 16 0;
#X connect 42 0 22 0;
#X connect 43 0 28 0;
#X connect 44 0 34 0;
#X connect 45 0 50 0;
#X connect 46 0 50 0;
#X connect 47 0 50 0;
#X connect 48 0 50 0;
#X connect 49 0 50 0;
#X connect 51 0 12 0;
#X connect 52 0 18 0;
#X connect 53 0 24 0;
#X connect 54 0 30 0;
#X connect 55 0 36 0;
#X connect 56 0 57 0;
#X connect 57 0 1 0;
#X connect 57 0 44 0;
#X connect 57 0 43 0;
#X connect 57 0 42 0;
#X connect 57 0 41 0;
#X connect 57 0 40 0;
#X connect 58 0 55 0;
#X connect 58 0 54 0;
#X connect 58 0 53 0;
#X connect 58 0 52 0;
#X connect 58 0 51 0;
#X connect 58 0 5 0;
#X connect 58 0 60 0;
#X connect 58 0 62 0;
#X connect 58 0 61 0;
#X connect 58 0 59 0;
#X connect 59 0 10 1;
#X restore 1617 356 pd additiveGuitar;
#X obj 1734 449 tgl 15 0 empty empty empty 17 7 0 10 -262144 -1 -1
0 1;
#X obj 299 951 + 0, f 9;
#X obj 323 931 t b f;
#X obj 708 808 min 1;
#X obj 707 787 abs;
#X obj 365 951 min 1;
#X obj 365 993 sin;
#X obj 365 971 * 1.5708;
#X obj 365 931 abs;
#X obj 708 881 line 0;
#X msg 708 861 \$1 100;
#X obj 365 1095 line 0;
#X msg 365 1075 \$1 100;
#X obj 708 921 * 1.5708;
#X obj 708 941 sin;
#N canvas 315 387 965 391 pluck 0;
#X obj 27 30 inlet;
#X obj 129 30 inlet;
#X obj 27 247 * 0, f 22;
#X obj 27 277 outlet;
#X obj 129 55 change;
#X obj 129 87 sel 1, f 44;
#X msg 390 168 0 1000;
#X obj 129 203 line 0;
#X obj 129 223 t b f;
#X msg 129 168 1.5 15;
#X obj 184 144 del 50;
#X msg 184 168 0.75 250;
#X obj 245 144 del 350;
#X msg 245 168 0.95 2500;
#X obj 313 144 del 3000;
#X msg 313 168 0.85 4000;
#X connect 0 0 2 0;
#X connect 1 0 4 0;
#X connect 2 0 3 0;
#X connect 4 0 5 0;
#X connect 5 0 9 0;
#X connect 5 0 10 0;
#X connect 5 1 6 0;
#X connect 6 0 7 0;
#X connect 7 0 8 0;
#X connect 8 0 2 0;
#X connect 8 1 2 1;
#X connect 9 0 7 0;
#X connect 10 0 11 0;
#X connect 10 0 12 0;
#X connect 11 0 7 0;
#X connect 12 0 13 0;
#X connect 12 0 14 0;
#X connect 13 0 7 0;
#X connect 14 0 15 0;
#X connect 15 0 7 0;
#X restore 708 962 pd pluck;
#X obj 1617 509 *~;
#N canvas 211 68 450 345 transient 0;
#X obj 119 186 noise~;
#X obj 213 219 sig~ 1;
#X obj 170 146 * 1.5708;
#X obj 170 168 sin;
#X obj 258 168 cos;
#X floatatom 258 187 5 0 0 0 - - -;
#X floatatom 170 187 5 0 0 0 - - -;
#X obj 170 79 t b b, f 8;
#X obj 170 126 line 0;
#X msg 215 101 1;
#X obj 119 243 *~ 0, f 9;
#X obj 213 243 *~ 0, f 8;
#X obj 170 58 sel 1, f 21;
#X msg 170 101 0 100;
#X obj 170 37 inlet;
#X obj 119 286 outlet~;
#X obj 119 214 *~ 0.5;
#X connect 0 0 16 0;
#X connect 1 0 11 0;
#X connect 2 0 3 0;
#X connect 2 0 4 0;
#X connect 3 0 6 0;
#X connect 4 0 5 0;
#X connect 5 0 11 1;
#X connect 6 0 10 1;
#X connect 7 0 13 0;
#X connect 7 1 9 0;
#X connect 8 0 2 0;
#X connect 9 0 8 0;
#X connect 10 0 15 0;
#X connect 11 0 15 0;
#X connect 12 0 7 0;
#X connect 13 0 8 0;
#X connect 14 0 12 0;
#X connect 16 0 10 0;
#X restore 1632 488 pd transient;
#N canvas 475 185 805 493 additiveGuitar_saw 0;
#X obj 31 30 inlet;
#X obj 31 132 * 1;
#X obj 31 345 *~, f 7;
#X obj 31 366 *~ 1;
#X msg 69 240 0.2;
#X obj 69 261 osc~;
#X obj 69 303 +~ 1;
#X obj 70 324 /~ 2;
#X obj 69 282 *~ 1;
#X obj 131 345 *~, f 7;
#X obj 169 261 osc~;
#X obj 169 303 +~ 1;
#X obj 170 324 /~ 2;
#X obj 169 282 *~ 1;
#X obj 231 345 *~, f 7;
#X obj 269 261 osc~;
#X obj 269 303 +~ 1;
#X obj 270 324 /~ 2;
#X obj 269 282 *~ 1;
#X obj 331 345 *~, f 7;
#X obj 369 261 osc~;
#X obj 369 303 +~ 1;
#X obj 370 324 /~ 2;
#X obj 369 282 *~ 1;
#X obj 431 345 *~, f 7;
#X obj 469 261 osc~;
#X obj 469 303 +~ 1;
#X obj 470 324 /~ 2;
#X obj 469 282 *~ 1;
#X obj 531 345 *~, f 7;
#X obj 569 261 osc~;
#X obj 569 303 +~ 1;
#X obj 570 324 /~ 2;
#X obj 569 282 *~ 1;
#X obj 131 132 * 2;
#X obj 231 132 * 3;
#X obj 331 132 * 5;
#X obj 431 132 * 6;
#X obj 531 132 * 7;
#X obj 131 366 *~ 0.25;
#X obj 231 366 *~ 0.11;
#X obj 331 366 *~ 0.04;
#X obj 431 366 *~ 0.028;
#X obj 531 366 *~ 0.0204;
#X obj 31 431 outlet~;
#X msg 169 240 0.25;
#X msg 269 240 0.3;
#X msg 369 240 0.5;
#X msg 469 240 0.55;
#X msg 569 240 0.75;
#X msg 31 52 \$1 5;
#X obj 31 73 line 0;
#X obj 720 39 loadbang;
#X msg 152 154 90;
#X msg 552 154 90;
#X msg 252 154 180;
#X msg 352 154 270;
#X obj 31 174 phasor~;
#X obj 131 174 phasor~;
#X obj 231 174 phasor~;
#X obj 431 174 phasor~;
#X obj 331 174 phasor~;
#X obj 531 174 phasor~;
#X connect 0 0 50 0;
#X connect 1 0 57 0;
#X connect 2 0 3 0;
#X connect 3 0 44 0;
#X connect 4 0 5 0;
#X connect 5 0 8 0;
#X connect 6 0 7 0;
#X connect 7 0 2 1;
#X connect 8 0 6 0;
#X connect 9 0 39 0;
#X connect 10 0 13 0;
#X connect 11 0 12 0;
#X connect 12 0 9 1;
#X connect 13 0 11 0;
#X connect 14 0 40 0;
#X connect 15 0 18 0;
#X connect 16 0 17 0;
#X connect 17 0 14 1;
#X connect 18 0 16 0;
#X connect 19 0 41 0;
#X connect 20 0 23 0;
#X connect 21 0 22 0;
#X connect 22 0 19 1;
#X connect 23 0 21 0;
#X connect 24 0 42 0;
#X connect 25 0 28 0;
#X connect 26 0 27 0;
#X connect 27 0 24 1;
#X connect 28 0 26 0;
#X connect 29 0 43 0;
#X connect 30 0 33 0;
#X connect 31 0 32 0;
#X connect 32 0 29 1;
#X connect 33 0 31 0;
#X connect 34 0 58 0;
#X connect 35 0 59 0;
#X connect 36 0 61 0;
#X connect 37 0 60 0;
#X connect 38 0 62 0;
#X connect 39 0 44 0;
#X connect 40 0 44 0;
#X connect 41 0 44 0;
#X connect 42 0 44 0;
#X connect 43 0 44 0;
#X connect 45 0 10 0;
#X connect 46 0 15 0;
#X connect 47 0 20 0;
#X connect 48 0 25 0;
#X connect 49 0 30 0;
#X connect 50 0 51 0;
#X connect 51 0 1 0;
#X connect 51 0 38 0;
#X connect 51 0 37 0;
#X connect 51 0 36 0;
#X connect 51 0 35 0;
#X connect 51 0 34 0;
#X connect 52 0 49 0;
#X connect 52 0 48 0;
#X connect 52 0 47 0;
#X connect 52 0 46 0;
#X connect 52 0 45 0;
#X connect 52 0 4 0;
#X connect 52 0 54 0;
#X connect 52 0 56 0;
#X connect 52 0 55 0;
#X connect 52 0 53 0;
#X connect 53 0 58 1;
#X connect 54 0 62 1;
#X connect 55 0 59 1;
#X connect 56 0 61 1;
#X connect 57 0 2 0;
#X connect 58 0 9 0;
#X connect 59 0 14 0;
#X connect 60 0 24 0;
#X connect 61 0 19 0;
#X connect 62 0 29 0;
#X restore 1753 356 pd additiveGuitar_saw;
#X text 273 135 30Hz;
#X obj 449 135 ironDAC_v5~;
#X text 1551 315 synth:;
#X text 1174 15 dataParse:;
#X obj 1890 356 r sawFade;
#X obj 1704 602 r dist1;
#X obj 1257 69 s sawFade;
#X obj 528 344 s dist1;
#X obj 1590 124 * 170;
#X obj 1590 144 + 30;
#X obj 1663 123 * 1750;
#X obj 1663 143 + 250;
#X obj 1784 102 * 170;
#X obj 1784 122 + 30;
#X obj 1857 101 * 1750;
#X obj 1857 121 + 250;
#X obj 1704 968 r rev1;
#X obj 365 1115 s rev1;
#N canvas 373 211 573 384 distortion2~ 0;
#X obj 35 342 outlet~;
#X obj 35 26 inlet~;
#X obj 92 26 inlet;
#X floatatom 118 114 5 0 0 0 - - -;
#X obj 152 26 inlet;
#X obj 92 137 *~;
#X obj 72 177 *~;
#X floatatom 212 118 5 0 0 0 - - -;
#X msg 212 137 \$1 1;
#X obj 212 157 swap;
#X obj 212 177 -;
#X floatatom 212 197 5 0 0 0 - - -;
#X obj 192 216 *~;
#X obj 96 64 * 0.75;
#X obj 162 67 * 0.75;
#X obj 92 157 cyclone/tanh~;
#X connect 1 0 6 0;
#X connect 1 0 12 0;
#X connect 2 0 13 0;
#X connect 3 0 5 0;
#X connect 4 0 14 0;
#X connect 5 0 15 0;
#X connect 6 0 0 0;
#X connect 7 0 8 0;
#X connect 8 0 9 0;
#X connect 9 0 10 0;
#X connect 9 1 10 1;
#X connect 10 0 11 0;
#X connect 11 0 12 1;
#X connect 12 0 0 0;
#X connect 13 0 3 0;
#X connect 14 0 7 0;
#X connect 15 0 6 1;
#X restore 1858 604 pd distortion2~;
#N canvas 464 256 573 384 distortion1~ 0;
#X obj 35 287 hip~ 10;
#X obj 35 342 outlet~;
#X obj 35 209 clip~, f 35;
#X obj 138 179 * -1;
#X obj 35 261 clip~, f 51;
#X obj 35 26 inlet~;
#X obj 35 179 *~ 1, f 10;
#X obj 35 239 *~ 1, f 61;
#X obj 92 100 line 0;
#X obj 92 26 inlet;
#X obj 35 315 *~ 0.999;
#X msg 92 78 \$1 20;
#X obj 92 149 cyclone/scale 0 1 1 10;
#X obj 242 149 cyclone/scale 0 1 1 0.3;
#X obj 398 149 cyclone/scale 0 1 1 3;
#X connect 0 0 10 0;
#X connect 2 0 7 0;
#X connect 3 0 2 1;
#X connect 3 0 4 1;
#X connect 4 0 0 0;
#X connect 5 0 6 0;
#X connect 6 0 2 0;
#X connect 7 0 4 0;
#X connect 8 0 12 0;
#X connect 8 0 13 0;
#X connect 8 0 14 0;
#X connect 9 0 11 0;
#X connect 10 0 1 0;
#X connect 11 0 8 0;
#X connect 12 0 6 1;
#X connect 13 0 3 0;
#X connect 13 0 2 2;
#X connect 13 0 4 2;
#X connect 14 0 7 1;
#X restore 1617 621 pd distortion1~;
#X text 233 295 Volume;
#X obj 1020 330 +;
#X obj 1020 356 +;
#X obj 1020 376 +;
#X obj 1020 403 / 4;
#X obj 2122 161 +;
#X obj 2122 187 +;
#X obj 2122 207 +;
#X obj 2122 234 / 4;
#X obj 2277 135 +;
#X obj 2277 185 / 3;
#X obj 2277 155 +;
#X text 398 134 2kHz;
#X obj 1734 429 r triggerData;
#X obj 188 22 r pitchData;
#X obj 1257 39 unpack f f f f f f f f f f f f f f f f f f, f 187;
#X obj 1257 15 r spectrumData;
#N canvas 0 23 949 304 saw_xFade 0;
#X obj 315 24 inlet;
#X obj 315 96 * 1.5708;
#X obj 315 49 min 0.999;
#X obj 315 72 max 0.001;
#X obj 315 147 change;
#X obj 408 147 change;
#X obj 315 125 cos;
#X obj 408 125 sin;
#X obj 408 190 line 0;
#X msg 408 169 \$1 5;
#X obj 315 190 line 0;
#X msg 315 169 \$1 5;
#X obj 26 217 *~ 0, f 17;
#X obj 26 253 outlet~;
#X obj 26 24 inlet~;
#X obj 26 190 *~ 0.999;
#X obj 158 217 *~ 0, f 17;
#X obj 158 24 inlet~;
#X obj 158 190 *~ 0.999;
#X connect 0 0 2 0;
#X connect 1 0 6 0;
#X connect 1 0 7 0;
#X connect 2 0 3 0;
#X connect 3 0 1 0;
#X connect 4 0 11 0;
#X connect 5 0 9 0;
#X connect 6 0 4 0;
#X connect 7 0 5 0;
#X connect 8 0 16 1;
#X connect 9 0 8 0;
#X connect 10 0 12 1;
#X connect 11 0 10 0;
#X connect 12 0 13 0;
#X connect 14 0 15 0;
#X connect 15 0 12 0;
#X connect 16 0 13 0;
#X connect 17 0 18 0;
#X connect 18 0 16 0;
#X restore 1617 385 pd saw_xFade;
#X f 46;
#N canvas 0 23 298 304 dist_xFade 0;
#X obj 125 24 inlet;
#X obj 125 96 * 1.5708;
#X obj 125 49 min 0.999;
#X obj 125 72 max 0.001;
#X obj 125 147 change;
#X obj 218 147 change;
#X obj 125 125 cos;
#X obj 218 125 sin;
#X obj 218 190 line 0;
#X msg 218 169 \$1 5;
#X obj 125 190 line 0;
#X msg 125 169 \$1 5;
#X obj 26 217 *~ 0, f 17;
#X obj 197 217 *~ 0;
#X obj 197 253 outlet~;
#X obj 26 253 outlet~;
#X obj 26 24 inlet~;
#X obj 26 190 *~ 0.999;
#X connect 0 0 2 0;
#X connect 1 0 6 0;
#X connect 1 0 7 0;
#X connect 2 0 3 0;
#X connect 3 0 1 0;
#X connect 4 0 11 0;
#X connect 5 0 9 0;
#X connect 6 0 4 0;
#X connect 7 0 5 0;
#X connect 8 0 13 1;
#X connect 9 0 8 0;
#X connect 10 0 12 1;
#X connect 11 0 10 0;
#X connect 12 0 15 0;
#X connect 13 0 14 0;
#X connect 16 0 17 0;
#X connect 17 0 12 0;
#X connect 17 0 13 0;
#X restore 1618 569 pd dist_xFade;
#X f 15;
#N canvas 242 177 877 513 chorus 0;
#X obj 30 17 inlet~;
#X obj 148 17 loadbang;
#X msg 148 84 1;
#X obj 148 120 phasor~;
#X obj 149 196 cos~;
#X obj 149 217 *~ 2;
#X obj 149 238 +~ 2;
#X obj 149 280 *~ 0.7;
#X obj 273 196 cos~;
#X obj 273 217 *~ 2;
#X obj 273 238 +~ 2;
#X obj 273 280 *~ 0.7;
#X obj 403 196 cos~;
#X obj 403 217 *~ 2;
#X obj 403 238 +~ 2;
#X obj 403 280 *~ 0.7;
#X obj 533 196 cos~;
#X obj 533 217 *~ 2;
#X obj 533 238 +~ 2;
#X obj 533 280 *~ 0.7;
#X obj 273 174 wrap~;
#X obj 273 153 +~ 0.25;
#X obj 403 174 wrap~;
#X obj 533 174 wrap~;
#X obj 403 153 +~ 0.5;
#X obj 533 153 +~ 0.75;
#X obj 30 471 outlet~;
#X obj 30 280 *~ 0.999;
#X obj 613 63 line 0;
#X obj 613 17 inlet;
#X msg 613 40 \$1 10;
#X obj 149 259 vd~ del13;
#X obj 277 260 vd~ del14;
#X obj 403 259 vd~ del15;
#X obj 533 259 vd~ del16;
#X obj 149 371 delwrite~ del13 100;
#X obj 273 371 delwrite~ del14 100;
#X obj 403 371 delwrite~ del15 100;
#X obj 533 371 delwrite~ del16 100;
#X obj 613 84 cyclone/scale 0 1 1 10;
#X obj 623 190 cyclone/scale 0 1 0.05 3;
#X obj 643 253 cyclone/scale 0 1 0 0.95;
#X connect 0 0 27 0;
#X connect 1 0 2 0;
#X connect 2 0 3 0;
#X connect 3 0 21 0;
#X connect 3 0 4 0;
#X connect 3 0 25 0;
#X connect 3 0 24 0;
#X connect 4 0 5 0;
#X connect 5 0 6 0;
#X connect 6 0 31 0;
#X connect 7 0 26 0;
#X connect 7 0 35 0;
#X connect 8 0 9 0;
#X connect 9 0 10 0;
#X connect 10 0 32 0;
#X connect 11 0 26 0;
#X connect 11 0 36 0;
#X connect 12 0 13 0;
#X connect 13 0 14 0;
#X connect 14 0 33 0;
#X connect 15 0 26 0;
#X connect 15 0 37 0;
#X connect 16 0 17 0;
#X connect 17 0 18 0;
#X connect 18 0 34 0;
#X connect 19 0 26 0;
#X connect 19 0 38 0;
#X connect 20 0 8 0;
#X connect 21 0 20 0;
#X connect 22 0 12 0;
#X connect 23 0 16 0;
#X connect 24 0 22 0;
#X connect 25 0 23 0;
#X connect 27 0 26 0;
#X connect 27 0 35 0;
#X connect 27 0 36 0;
#X connect 27 0 37 0;
#X connect 27 0 38 0;
#X connect 28 0 39 0;
#X connect 28 0 40 0;
#X connect 28 0 41 0;
#X connect 29 0 30 0;
#X connect 30 0 28 0;
#X connect 31 0 7 0;
#X connect 32 0 11 0;
#X connect 33 0 15 0;
#X connect 34 0 19 0;
#X connect 39 0 3 0;
#X connect 40 0 17 1;
#X connect 40 0 18 1;
#X connect 40 0 14 1;
#X connect 40 0 13 1;
#X connect 40 0 10 1;
#X connect 40 0 9 1;
#X connect 40 0 6 1;
#X connect 40 0 5 1;
#X connect 41 0 19 1;
#X connect 41 0 15 1;
#X connect 41 0 11 1;
#X connect 41 0 7 1;
#X restore 1858 701 pd chorus;
#N canvas 0 23 165 238 ampMod 0;
#X obj 30 150 *~, f 9;
#X obj 81 88 osc~ 0;
#X obj 81 109 +~ 1;
#X obj 81 130 /~ 2;
#X msg 81 47 \$1 5;
#X obj 81 68 line 0;
#X obj 81 26 inlet;
#X obj 30 26 inlet~;
#X obj 30 176 outlet~;
#X connect 0 0 8 0;
#X connect 1 0 2 0;
#X connect 2 0 3 0;
#X connect 3 0 0 1;
#X connect 4 0 5 0;
#X connect 5 0 1 0;
#X connect 6 0 4 0;
#X connect 7 0 0 0;
#X restore 1859 785 pd ampMod;
#X obj 1704 897 * 0.1;
#X obj 1946 897 * 0.1;
#N canvas 0 23 450 300 hadamardReverb~ 0;
#X obj 874 246 key;
#X obj 874 273 sel 32;
#X msg 874 297 clear;
#X obj 792 248 outlet~;
#N canvas 188 75 1286 482 matrixMult 0;
#X obj 37 38 inlet~;
#X obj 36 435 outlet~;
#X obj 107 80 *~ 1;
#X obj 97 120 *~ 1;
#X obj 87 160 *~ 1;
#X obj 77 200 *~ 1;
#X obj 67 240 *~ 1;
#X obj 57 280 *~ 1;
#X obj 47 320 *~ 1;
#X obj 37 360 *~ 1;
#X obj 197 38 inlet~;
#X obj 196 435 outlet~;
#X obj 267 80 *~ 1;
#X obj 247 160 *~ 1;
#X obj 227 240 *~ 1;
#X obj 207 320 *~ 1;
#X obj 357 38 inlet~;
#X obj 356 435 outlet~;
#X obj 427 80 *~ 1;
#X obj 417 120 *~ 1;
#X obj 387 240 *~ 1;
#X obj 377 280 *~ 1;
#X obj 517 38 inlet~;
#X obj 516 435 outlet~;
#X obj 587 80 *~ 1;
#X obj 557 200 *~ 1;
#X obj 517 360 *~ 1;
#X obj 677 38 inlet~;
#X obj 676 435 outlet~;
#X obj 747 80 *~ 1;
#X obj 737 120 *~ 1;
#X obj 727 160 *~ 1;
#X obj 717 200 *~ 1;
#X obj 837 38 inlet~;
#X obj 836 435 outlet~;
#X obj 907 80 *~ 1;
#X obj 887 160 *~ 1;
#X obj 857 280 *~ 1;
#X obj 837 360 *~ 1;
#X obj 997 38 inlet~;
#X obj 996 435 outlet~;
#X obj 1067 80 *~ 1;
#X obj 1057 120 *~ 1;
#X obj 1007 320 *~ 1;
#X obj 997 360 *~ 1;
#X obj 1157 38 inlet~;
#X obj 1156 435 outlet~;
#X obj 1227 80 *~ 1;
#X obj 1197 200 *~ 1;
#X obj 1177 280 *~ 1;
#X obj 1167 320 *~ 1;
#X obj 257 120 *~ -1;
#X obj 237 200 *~ -1;
#X obj 217 280 *~ -1;
#X obj 197 360 *~ -1;
#X obj 407 160 *~ -1;
#X obj 397 200 *~ -1;
#X obj 367 320 *~ -1;
#X obj 357 360 *~ -1;
#X obj 577 120 *~ -1;
#X obj 567 160 *~ -1;
#X obj 537 280 *~ -1;
#X obj 527 320 *~ -1;
#X obj 547 240 *~ 1;
#X obj 707 240 *~ -1;
#X obj 697 280 *~ -1;
#X obj 687 320 *~ -1;
#X obj 677 360 *~ -1;
#X obj 897 120 *~ -1;
#X obj 877 200 *~ -1;
#X obj 867 240 *~ -1;
#X obj 847 320 *~ -1;
#X obj 1047 160 *~ -1;
#X obj 1037 200 *~ -1;
#X obj 1027 240 *~ -1;
#X obj 1017 280 *~ -1;
#X obj 1217 120 *~ -1;
#X obj 1207 160 *~ -1;
#X obj 1187 240 *~ -1;
#X obj 1157 360 *~ -1;
#X connect 0 0 2 0;
#X connect 0 0 3 0;
#X connect 0 0 4 0;
#X connect 0 0 5 0;
#X connect 0 0 6 0;
#X connect 0 0 7 0;
#X connect 0 0 8 0;
#X connect 0 0 9 0;
#X connect 2 0 1 0;
#X connect 3 0 11 0;
#X connect 4 0 17 0;
#X connect 5 0 23 0;
#X connect 6 0 28 0;
#X connect 7 0 34 0;
#X connect 8 0 40 0;
#X connect 9 0 46 0;
#X connect 10 0 12 0;
#X connect 10 0 13 0;
#X connect 10 0 14 0;
#X connect 10 0 15 0;
#X connect 10 0 51 0;
#X connect 10 0 52 0;
#X connect 10 0 53 0;
#X connect 10 0 54 0;
#X connect 12 0 1 0;
#X connect 13 0 17 0;
#X connect 14 0 28 0;
#X connect 15 0 40 0;
#X connect 16 0 18 0;
#X connect 16 0 19 0;
#X connect 16 0 20 0;
#X connect 16 0 21 0;
#X connect 16 0 55 0;
#X connect 16 0 56 0;
#X connect 16 0 57 0;
#X connect 16 0 58 0;
#X connect 18 0 1 0;
#X connect 19 0 11 0;
#X connect 20 0 28 0;
#X connect 21 0 34 0;
#X connect 22 0 24 0;
#X connect 22 0 25 0;
#X connect 22 0 26 0;
#X connect 22 0 59 0;
#X connect 22 0 60 0;
#X connect 22 0 61 0;
#X connect 22 0 62 0;
#X connect 22 0 63 0;
#X connect 24 0 1 0;
#X connect 25 0 23 0;
#X connect 26 0 46 0;
#X connect 27 0 29 0;
#X connect 27 0 30 0;
#X connect 27 0 31 0;
#X connect 27 0 32 0;
#X connect 27 0 64 0;
#X connect 27 0 65 0;
#X connect 27 0 66 0;
#X connect 27 0 67 0;
#X connect 29 0 1 0;
#X connect 30 0 11 0;
#X connect 31 0 17 0;
#X connect 32 0 23 0;
#X connect 33 0 35 0;
#X connect 33 0 36 0;
#X connect 33 0 37 0;
#X connect 33 0 38 0;
#X connect 33 0 68 0;
#X connect 33 0 69 0;
#X connect 33 0 70 0;
#X connect 33 0 71 0;
#X connect 35 0 1 0;
#X connect 36 0 17 0;
#X connect 37 0 34 0;
#X connect 38 0 46 0;
#X connect 39 0 41 0;
#X connect 39 0 42 0;
#X connect 39 0 43 0;
#X connect 39 0 44 0;
#X connect 39 0 72 0;
#X connect 39 0 73 0;
#X connect 39 0 74 0;
#X connect 39 0 75 0;
#X connect 41 0 1 0;
#X connect 42 0 11 0;
#X connect 43 0 40 0;
#X connect 44 0 46 0;
#X connect 45 0 47 0;
#X connect 45 0 48 0;
#X connect 45 0 49 0;
#X connect 45 0 50 0;
#X connect 45 0 76 0;
#X connect 45 0 77 0;
#X connect 45 0 78 0;
#X connect 45 0 79 0;
#X connect 47 0 1 0;
#X connect 48 0 23 0;
#X connect 49 0 34 0;
#X connect 50 0 40 0;
#X connect 51 0 11 0;
#X connect 52 0 23 0;
#X connect 53 0 34 0;
#X connect 54 0 46 0;
#X connect 55 0 17 0;
#X connect 56 0 23 0;
#X connect 57 0 40 0;
#X connect 58 0 46 0;
#X connect 59 0 11 0;
#X connect 60 0 17 0;
#X connect 61 0 34 0;
#X connect 62 0 40 0;
#X connect 63 0 28 0;
#X connect 64 0 28 0;
#X connect 65 0 34 0;
#X connect 66 0 40 0;
#X connect 67 0 46 0;
#X connect 68 0 11 0;
#X connect 69 0 23 0;
#X connect 70 0 28 0;
#X connect 71 0 40 0;
#X connect 72 0 17 0;
#X connect 73 0 23 0;
#X connect 74 0 28 0;
#X connect 75 0 34 0;
#X connect 76 0 11 0;
#X connect 77 0 17 0;
#X connect 78 0 28 0;
#X connect 79 0 46 0;
#X restore 20 67 pd matrixMult;
#X f 121;
#X msg 860 51 \$1 50;
#X obj 46 172 inlet~;
#X obj 743 133 *~;
#X obj 639 134 *~;
#X obj 536 133 *~;
#X obj 433 134 *~;
#X obj 329 133 *~;
#X obj 226 134 *~;
#X obj 123 133 *~;
#X obj 20 134 *~;
#X obj 860 76 line~;
#X obj 860 31 inlet;
#X obj 123 31 delread~ d18 43;
#X obj 226 31 delread~ d19 59;
#X obj 329 31 delread~ d20 71;
#X obj 433 31 delread~ d21 83;
#X obj 536 31 delread~ d22 101;
#X obj 640 31 delread~ d23 109;
#X obj 743 31 delread~ d24 131;
#X obj 20 329 delwrite~ d17 31;
#X obj 124 329 delwrite~ d18 43;
#X obj 226 328 delwrite~ d19 59;
#X obj 329 329 delwrite~ d20 71;
#X obj 433 329 delwrite~ d21 83;
#X obj 536 329 delwrite~ d22 101;
#X obj 639 329 delwrite~ d23 109;
#X obj 743 329 delwrite~ d24 131;
#X obj 20 31 delread~ d25 31;
#X connect 0 0 1 0;
#X connect 1 0 2 0;
#X connect 2 0 24 0;
#X connect 2 0 25 0;
#X connect 2 0 26 0;
#X connect 2 0 27 0;
#X connect 2 0 28 0;
#X connect 2 0 29 0;
#X connect 2 0 30 0;
#X connect 2 0 31 0;
#X connect 4 0 14 0;
#X connect 4 1 13 0;
#X connect 4 2 12 0;
#X connect 4 3 11 0;
#X connect 4 4 10 0;
#X connect 4 5 9 0;
#X connect 4 6 8 0;
#X connect 4 7 7 0;
#X connect 5 0 15 0;
#X connect 6 0 3 0;
#X connect 6 0 24 0;
#X connect 6 0 25 0;
#X connect 6 0 26 0;
#X connect 6 0 27 0;
#X connect 6 0 28 0;
#X connect 6 0 29 0;
#X connect 6 0 30 0;
#X connect 6 0 31 0;
#X connect 7 0 3 0;
#X connect 7 0 31 0;
#X connect 8 0 3 0;
#X connect 8 0 30 0;
#X connect 9 0 3 0;
#X connect 9 0 29 0;
#X connect 10 0 3 0;
#X connect 10 0 28 0;
#X connect 11 0 3 0;
#X connect 11 0 27 0;
#X connect 12 0 3 0;
#X connect 12 0 26 0;
#X connect 13 0 3 0;
#X connect 13 0 25 0;
#X connect 14 0 3 0;
#X connect 14 0 24 0;
#X connect 15 0 7 1;
#X connect 15 0 8 1;
#X connect 15 0 9 1;
#X connect 15 0 10 1;
#X connect 15 0 11 1;
#X connect 15 0 12 1;
#X connect 15 0 13 1;
#X connect 15 0 14 1;
#X connect 16 0 5 0;
#X connect 17 0 4 1;
#X connect 18 0 4 2;
#X connect 19 0 4 3;
#X connect 20 0 4 4;
#X connect 21 0 4 5;
#X connect 22 0 4 6;
#X connect 23 0 4 7;
#X connect 32 0 4 0;
#X restore 1617 919 pd hadamardReverb~;
#N canvas 0 23 940 399 hadamardReverb~ 0;
#X obj 874 246 key;
#X obj 874 273 sel 32;
#X msg 874 297 clear;
#X obj 792 248 outlet~;
#N canvas 0 75 1280 482 matrixMult 0;
#X obj 37 38 inlet~;
#X obj 36 435 outlet~;
#X obj 107 80 *~ 1;
#X obj 97 120 *~ 1;
#X obj 87 160 *~ 1;
#X obj 77 200 *~ 1;
#X obj 67 240 *~ 1;
#X obj 57 280 *~ 1;
#X obj 47 320 *~ 1;
#X obj 37 360 *~ 1;
#X obj 197 38 inlet~;
#X obj 196 435 outlet~;
#X obj 267 80 *~ 1;
#X obj 247 160 *~ 1;
#X obj 227 240 *~ 1;
#X obj 207 320 *~ 1;
#X obj 357 38 inlet~;
#X obj 356 435 outlet~;
#X obj 427 80 *~ 1;
#X obj 417 120 *~ 1;
#X obj 387 240 *~ 1;
#X obj 377 280 *~ 1;
#X obj 517 38 inlet~;
#X obj 516 435 outlet~;
#X obj 587 80 *~ 1;
#X obj 557 200 *~ 1;
#X obj 517 360 *~ 1;
#X obj 677 38 inlet~;
#X obj 676 435 outlet~;
#X obj 747 80 *~ 1;
#X obj 737 120 *~ 1;
#X obj 727 160 *~ 1;
#X obj 717 200 *~ 1;
#X obj 837 38 inlet~;
#X obj 836 435 outlet~;
#X obj 907 80 *~ 1;
#X obj 887 160 *~ 1;
#X obj 857 280 *~ 1;
#X obj 837 360 *~ 1;
#X obj 997 38 inlet~;
#X obj 996 435 outlet~;
#X obj 1067 80 *~ 1;
#X obj 1057 120 *~ 1;
#X obj 1007 320 *~ 1;
#X obj 997 360 *~ 1;
#X obj 1157 38 inlet~;
#X obj 1156 435 outlet~;
#X obj 1227 80 *~ 1;
#X obj 1197 200 *~ 1;
#X obj 1177 280 *~ 1;
#X obj 1167 320 *~ 1;
#X obj 257 120 *~ -1;
#X obj 237 200 *~ -1;
#X obj 217 280 *~ -1;
#X obj 197 360 *~ -1;
#X obj 407 160 *~ -1;
#X obj 397 200 *~ -1;
#X obj 367 320 *~ -1;
#X obj 357 360 *~ -1;
#X obj 577 120 *~ -1;
#X obj 567 160 *~ -1;
#X obj 537 280 *~ -1;
#X obj 527 320 *~ -1;
#X obj 547 240 *~ 1;
#X obj 707 240 *~ -1;
#X obj 697 280 *~ -1;
#X obj 687 320 *~ -1;
#X obj 677 360 *~ -1;
#X obj 897 120 *~ -1;
#X obj 877 200 *~ -1;
#X obj 867 240 *~ -1;
#X obj 847 320 *~ -1;
#X obj 1047 160 *~ -1;
#X obj 1037 200 *~ -1;
#X obj 1027 240 *~ -1;
#X obj 1017 280 *~ -1;
#X obj 1217 120 *~ -1;
#X obj 1207 160 *~ -1;
#X obj 1187 240 *~ -1;
#X obj 1157 360 *~ -1;
#X connect 0 0 2 0;
#X connect 0 0 3 0;
#X connect 0 0 4 0;
#X connect 0 0 5 0;
#X connect 0 0 6 0;
#X connect 0 0 7 0;
#X connect 0 0 8 0;
#X connect 0 0 9 0;
#X connect 2 0 1 0;
#X connect 3 0 11 0;
#X connect 4 0 17 0;
#X connect 5 0 23 0;
#X connect 6 0 28 0;
#X connect 7 0 34 0;
#X connect 8 0 40 0;
#X connect 9 0 46 0;
#X connect 10 0 12 0;
#X connect 10 0 13 0;
#X connect 10 0 14 0;
#X connect 10 0 15 0;
#X connect 10 0 51 0;
#X connect 10 0 52 0;
#X connect 10 0 53 0;
#X connect 10 0 54 0;
#X connect 12 0 1 0;
#X connect 13 0 17 0;
#X connect 14 0 28 0;
#X connect 15 0 40 0;
#X connect 16 0 18 0;
#X connect 16 0 19 0;
#X connect 16 0 20 0;
#X connect 16 0 21 0;
#X connect 16 0 55 0;
#X connect 16 0 56 0;
#X connect 16 0 57 0;
#X connect 16 0 58 0;
#X connect 18 0 1 0;
#X connect 19 0 11 0;
#X connect 20 0 28 0;
#X connect 21 0 34 0;
#X connect 22 0 24 0;
#X connect 22 0 25 0;
#X connect 22 0 26 0;
#X connect 22 0 59 0;
#X connect 22 0 60 0;
#X connect 22 0 61 0;
#X connect 22 0 62 0;
#X connect 22 0 63 0;
#X connect 24 0 1 0;
#X connect 25 0 23 0;
#X connect 26 0 46 0;
#X connect 27 0 29 0;
#X connect 27 0 30 0;
#X connect 27 0 31 0;
#X connect 27 0 32 0;
#X connect 27 0 64 0;
#X connect 27 0 65 0;
#X connect 27 0 66 0;
#X connect 27 0 67 0;
#X connect 29 0 1 0;
#X connect 30 0 11 0;
#X connect 31 0 17 0;
#X connect 32 0 23 0;
#X connect 33 0 35 0;
#X connect 33 0 36 0;
#X connect 33 0 37 0;
#X connect 33 0 38 0;
#X connect 33 0 68 0;
#X connect 33 0 69 0;
#X connect 33 0 70 0;
#X connect 33 0 71 0;
#X connect 35 0 1 0;
#X connect 36 0 17 0;
#X connect 37 0 34 0;
#X connect 38 0 46 0;
#X connect 39 0 41 0;
#X connect 39 0 42 0;
#X connect 39 0 43 0;
#X connect 39 0 44 0;
#X connect 39 0 72 0;
#X connect 39 0 73 0;
#X connect 39 0 74 0;
#X connect 39 0 75 0;
#X connect 41 0 1 0;
#X connect 42 0 11 0;
#X connect 43 0 40 0;
#X connect 44 0 46 0;
#X connect 45 0 47 0;
#X connect 45 0 48 0;
#X connect 45 0 49 0;
#X connect 45 0 50 0;
#X connect 45 0 76 0;
#X connect 45 0 77 0;
#X connect 45 0 78 0;
#X connect 45 0 79 0;
#X connect 47 0 1 0;
#X connect 48 0 23 0;
#X connect 49 0 34 0;
#X connect 50 0 40 0;
#X connect 51 0 11 0;
#X connect 52 0 23 0;
#X connect 53 0 34 0;
#X connect 54 0 46 0;
#X connect 55 0 17 0;
#X connect 56 0 23 0;
#X connect 57 0 40 0;
#X connect 58 0 46 0;
#X connect 59 0 11 0;
#X connect 60 0 17 0;
#X connect 61 0 34 0;
#X connect 62 0 40 0;
#X connect 63 0 28 0;
#X connect 64 0 28 0;
#X connect 65 0 34 0;
#X connect 66 0 40 0;
#X connect 67 0 46 0;
#X connect 68 0 11 0;
#X connect 69 0 23 0;
#X connect 70 0 28 0;
#X connect 71 0 40 0;
#X connect 72 0 17 0;
#X connect 73 0 23 0;
#X connect 74 0 28 0;
#X connect 75 0 34 0;
#X connect 76 0 11 0;
#X connect 77 0 17 0;
#X connect 78 0 28 0;
#X connect 79 0 46 0;
#X restore 20 67 pd matrixMult;
#X f 121;
#X msg 860 51 \$1 50;
#X obj 46 172 inlet~;
#X obj 743 133 *~;
#X obj 639 134 *~;
#X obj 536 133 *~;
#X obj 433 134 *~;
#X obj 329 133 *~;
#X obj 226 134 *~;
#X obj 123 133 *~;
#X obj 20 134 *~;
#X obj 860 76 line~;
#X obj 860 31 inlet;
#X obj 20 31 delread~ d25 31;
#X obj 122 31 delread~ d26 43;
#X obj 226 31 delread~ d27 59;
#X obj 329 31 delread~ d28 71;
#X obj 433 31 delread~ d29 83;
#X obj 536 31 delread~ d30 101;
#X obj 640 31 delread~ d31 109;
#X obj 743 31 delread~ d32 131;
#X obj 20 329 delwrite~ d25 31;
#X obj 124 329 delwrite~ d26 43;
#X obj 226 328 delwrite~ d27 59;
#X obj 329 329 delwrite~ d28 71;
#X obj 433 329 delwrite~ d29 83;
#X obj 536 329 delwrite~ d30 101;
#X obj 743 329 delwrite~ d32 131;
#X obj 639 329 delwrite~ d31 109;
#X connect 0 0 1 0;
#X connect 1 0 2 0;
#X connect 2 0 25 0;
#X connect 2 0 26 0;
#X connect 2 0 27 0;
#X connect 2 0 28 0;
#X connect 2 0 29 0;
#X connect 2 0 30 0;
#X connect 2 0 31 0;
#X connect 2 0 32 0;
#X connect 4 0 14 0;
#X connect 4 1 13 0;
#X connect 4 2 12 0;
#X connect 4 3 11 0;
#X connect 4 4 10 0;
#X connect 4 5 9 0;
#X connect 4 6 8 0;
#X connect 4 7 7 0;
#X connect 5 0 15 0;
#X connect 6 0 3 0;
#X connect 6 0 25 0;
#X connect 6 0 26 0;
#X connect 6 0 27 0;
#X connect 6 0 28 0;
#X connect 6 0 29 0;
#X connect 6 0 30 0;
#X connect 6 0 31 0;
#X connect 6 0 32 0;
#X connect 7 0 3 0;
#X connect 7 0 31 0;
#X connect 8 0 3 0;
#X connect 8 0 32 0;
#X connect 9 0 3 0;
#X connect 9 0 30 0;
#X connect 10 0 3 0;
#X connect 10 0 29 0;
#X connect 11 0 3 0;
#X connect 11 0 28 0;
#X connect 12 0 3 0;
#X connect 12 0 27 0;
#X connect 13 0 3 0;
#X connect 13 0 26 0;
#X connect 14 0 3 0;
#X connect 14 0 25 0;
#X connect 15 0 7 1;
#X connect 15 0 8 1;
#X connect 15 0 9 1;
#X connect 15 0 10 1;
#X connect 15 0 11 1;
#X connect 15 0 12 1;
#X connect 15 0 13 1;
#X connect 15 0 14 1;
#X connect 16 0 5 0;
#X connect 17 0 4 0;
#X connect 18 0 4 1;
#X connect 19 0 4 2;
#X connect 20 0 4 3;
#X connect 21 0 4 4;
#X connect 22 0 4 5;
#X connect 23 0 4 6;
#X connect 24 0 4 7;
#X restore 1859 919 pd hadamardReverb~;
#N canvas 0 23 1048 447 hadamardReverb~ 0;
#X obj 874 246 key;
#X obj 874 273 sel 32;
#X msg 874 297 clear;
#X obj 792 248 outlet~;
#N canvas 188 75 1286 482 matrixMult 0;
#X obj 37 38 inlet~;
#X obj 36 435 outlet~;
#X obj 107 80 *~ 1;
#X obj 97 120 *~ 1;
#X obj 87 160 *~ 1;
#X obj 77 200 *~ 1;
#X obj 67 240 *~ 1;
#X obj 57 280 *~ 1;
#X obj 47 320 *~ 1;
#X obj 37 360 *~ 1;
#X obj 197 38 inlet~;
#X obj 196 435 outlet~;
#X obj 267 80 *~ 1;
#X obj 247 160 *~ 1;
#X obj 227 240 *~ 1;
#X obj 207 320 *~ 1;
#X obj 357 38 inlet~;
#X obj 356 435 outlet~;
#X obj 427 80 *~ 1;
#X obj 417 120 *~ 1;
#X obj 387 240 *~ 1;
#X obj 377 280 *~ 1;
#X obj 517 38 inlet~;
#X obj 516 435 outlet~;
#X obj 587 80 *~ 1;
#X obj 557 200 *~ 1;
#X obj 517 360 *~ 1;
#X obj 677 38 inlet~;
#X obj 676 435 outlet~;
#X obj 747 80 *~ 1;
#X obj 737 120 *~ 1;
#X obj 727 160 *~ 1;
#X obj 717 200 *~ 1;
#X obj 837 38 inlet~;
#X obj 836 435 outlet~;
#X obj 907 80 *~ 1;
#X obj 887 160 *~ 1;
#X obj 857 280 *~ 1;
#X obj 837 360 *~ 1;
#X obj 997 38 inlet~;
#X obj 996 435 outlet~;
#X obj 1067 80 *~ 1;
#X obj 1057 120 *~ 1;
#X obj 1007 320 *~ 1;
#X obj 997 360 *~ 1;
#X obj 1157 38 inlet~;
#X obj 1156 435 outlet~;
#X obj 1227 80 *~ 1;
#X obj 1197 200 *~ 1;
#X obj 1177 280 *~ 1;
#X obj 1167 320 *~ 1;
#X obj 257 120 *~ -1;
#X obj 237 200 *~ -1;
#X obj 217 280 *~ -1;
#X obj 197 360 *~ -1;
#X obj 407 160 *~ -1;
#X obj 397 200 *~ -1;
#X obj 367 320 *~ -1;
#X obj 357 360 *~ -1;
#X obj 577 120 *~ -1;
#X obj 567 160 *~ -1;
#X obj 537 280 *~ -1;
#X obj 527 320 *~ -1;
#X obj 547 240 *~ 1;
#X obj 707 240 *~ -1;
#X obj 697 280 *~ -1;
#X obj 687 320 *~ -1;
#X obj 677 360 *~ -1;
#X obj 897 120 *~ -1;
#X obj 877 200 *~ -1;
#X obj 867 240 *~ -1;
#X obj 847 320 *~ -1;
#X obj 1047 160 *~ -1;
#X obj 1037 200 *~ -1;
#X obj 1027 240 *~ -1;
#X obj 1017 280 *~ -1;
#X obj 1217 120 *~ -1;
#X obj 1207 160 *~ -1;
#X obj 1187 240 *~ -1;
#X obj 1157 360 *~ -1;
#X connect 0 0 2 0;
#X connect 0 0 3 0;
#X connect 0 0 4 0;
#X connect 0 0 5 0;
#X connect 0 0 6 0;
#X connect 0 0 7 0;
#X connect 0 0 8 0;
#X connect 0 0 9 0;
#X connect 2 0 1 0;
#X connect 3 0 11 0;
#X connect 4 0 17 0;
#X connect 5 0 23 0;
#X connect 6 0 28 0;
#X connect 7 0 34 0;
#X connect 8 0 40 0;
#X connect 9 0 46 0;
#X connect 10 0 12 0;
#X connect 10 0 13 0;
#X connect 10 0 14 0;
#X connect 10 0 15 0;
#X connect 10 0 51 0;
#X connect 10 0 52 0;
#X connect 10 0 53 0;
#X connect 10 0 54 0;
#X connect 12 0 1 0;
#X connect 13 0 17 0;
#X connect 14 0 28 0;
#X connect 15 0 40 0;
#X connect 16 0 18 0;
#X connect 16 0 19 0;
#X connect 16 0 20 0;
#X connect 16 0 21 0;
#X connect 16 0 55 0;
#X connect 16 0 56 0;
#X connect 16 0 57 0;
#X connect 16 0 58 0;
#X connect 18 0 1 0;
#X connect 19 0 11 0;
#X connect 20 0 28 0;
#X connect 21 0 34 0;
#X connect 22 0 24 0;
#X connect 22 0 25 0;
#X connect 22 0 26 0;
#X connect 22 0 59 0;
#X connect 22 0 60 0;
#X connect 22 0 61 0;
#X connect 22 0 62 0;
#X connect 22 0 63 0;
#X connect 24 0 1 0;
#X connect 25 0 23 0;
#X connect 26 0 46 0;
#X connect 27 0 29 0;
#X connect 27 0 30 0;
#X connect 27 0 31 0;
#X connect 27 0 32 0;
#X connect 27 0 64 0;
#X connect 27 0 65 0;
#X connect 27 0 66 0;
#X connect 27 0 67 0;
#X connect 29 0 1 0;
#X connect 30 0 11 0;
#X connect 31 0 17 0;
#X connect 32 0 23 0;
#X connect 33 0 35 0;
#X connect 33 0 36 0;
#X connect 33 0 37 0;
#X connect 33 0 38 0;
#X connect 33 0 68 0;
#X connect 33 0 69 0;
#X connect 33 0 70 0;
#X connect 33 0 71 0;
#X connect 35 0 1 0;
#X connect 36 0 17 0;
#X connect 37 0 34 0;
#X connect 38 0 46 0;
#X connect 39 0 41 0;
#X connect 39 0 42 0;
#X connect 39 0 43 0;
#X connect 39 0 44 0;
#X connect 39 0 72 0;
#X connect 39 0 73 0;
#X connect 39 0 74 0;
#X connect 39 0 75 0;
#X connect 41 0 1 0;
#X connect 42 0 11 0;
#X connect 43 0 40 0;
#X connect 44 0 46 0;
#X connect 45 0 47 0;
#X connect 45 0 48 0;
#X connect 45 0 49 0;
#X connect 45 0 50 0;
#X connect 45 0 76 0;
#X connect 45 0 77 0;
#X connect 45 0 78 0;
#X connect 45 0 79 0;
#X connect 47 0 1 0;
#X connect 48 0 23 0;
#X connect 49 0 34 0;
#X connect 50 0 40 0;
#X connect 51 0 11 0;
#X connect 52 0 23 0;
#X connect 53 0 34 0;
#X connect 54 0 46 0;
#X connect 55 0 17 0;
#X connect 56 0 23 0;
#X connect 57 0 40 0;
#X connect 58 0 46 0;
#X connect 59 0 11 0;
#X connect 60 0 17 0;
#X connect 61 0 34 0;
#X connect 62 0 40 0;
#X connect 63 0 28 0;
#X connect 64 0 28 0;
#X connect 65 0 34 0;
#X connect 66 0 40 0;
#X connect 67 0 46 0;
#X connect 68 0 11 0;
#X connect 69 0 23 0;
#X connect 70 0 28 0;
#X connect 71 0 40 0;
#X connect 72 0 17 0;
#X connect 73 0 23 0;
#X connect 74 0 28 0;
#X connect 75 0 34 0;
#X connect 76 0 11 0;
#X connect 77 0 17 0;
#X connect 78 0 28 0;
#X connect 79 0 46 0;
#X restore 20 67 pd matrixMult;
#X f 121;
#X msg 860 51 \$1 50;
#X obj 46 172 inlet~;
#X obj 743 133 *~;
#X obj 639 134 *~;
#X obj 536 133 *~;
#X obj 433 134 *~;
#X obj 329 133 *~;
#X obj 226 134 *~;
#X obj 123 133 *~;
#X obj 20 134 *~;
#X obj 860 76 line~;
#X obj 860 31 inlet;
#X obj 20 31 delread~ d1 31;
#X obj 123 31 delread~ d2 43;
#X obj 226 31 delread~ d3 59;
#X obj 329 31 delread~ d4 71;
#X obj 433 31 delread~ d5 83;
#X obj 536 31 delread~ d6 101;
#X obj 640 31 delread~ d7 109;
#X obj 743 31 delread~ d8 131;
#X obj 20 329 delwrite~ d1 31;
#X obj 124 329 delwrite~ d2 43;
#X obj 226 328 delwrite~ d3 59;
#X obj 329 329 delwrite~ d4 71;
#X obj 433 329 delwrite~ d5 83;
#X obj 536 329 delwrite~ d6 101;
#X obj 639 329 delwrite~ d7 109;
#X obj 743 329 delwrite~ d8 131;
#X connect 0 0 1 0;
#X connect 1 0 2 0;
#X connect 2 0 25 0;
#X connect 2 0 26 0;
#X connect 2 0 27 0;
#X connect 2 0 28 0;
#X connect 2 0 29 0;
#X connect 2 0 30 0;
#X connect 2 0 31 0;
#X connect 2 0 32 0;
#X connect 4 0 14 0;
#X connect 4 1 13 0;
#X connect 4 2 12 0;
#X connect 4 3 11 0;
#X connect 4 4 10 0;
#X connect 4 5 9 0;
#X connect 4 6 8 0;
#X connect 4 7 7 0;
#X connect 5 0 15 0;
#X connect 6 0 3 0;
#X connect 6 0 25 0;
#X connect 6 0 26 0;
#X connect 6 0 27 0;
#X connect 6 0 28 0;
#X connect 6 0 29 0;
#X connect 6 0 30 0;
#X connect 6 0 31 0;
#X connect 6 0 32 0;
#X connect 7 0 3 0;
#X connect 7 0 32 0;
#X connect 8 0 3 0;
#X connect 8 0 31 0;
#X connect 9 0 3 0;
#X connect 9 0 30 0;
#X connect 10 0 3 0;
#X connect 10 0 29 0;
#X connect 11 0 3 0;
#X connect 11 0 28 0;
#X connect 12 0 3 0;
#X connect 12 0 27 0;
#X connect 13 0 3 0;
#X connect 13 0 26 0;
#X connect 14 0 3 0;
#X connect 14 0 25 0;
#X connect 15 0 7 1;
#X connect 15 0 8 1;
#X connect 15 0 9 1;
#X connect 15 0 10 1;
#X connect 15 0 11 1;
#X connect 15 0 12 1;
#X connect 15 0 13 1;
#X connect 15 0 14 1;
#X connect 16 0 5 0;
#X connect 17 0 4 0;
#X connect 18 0 4 1;
#X connect 19 0 4 2;
#X connect 20 0 4 3;
#X connect 21 0 4 4;
#X connect 22 0 4 5;
#X connect 23 0 4 6;
#X connect 24 0 4 7;
#X restore 1617 989 pd hadamardReverb~;
#X obj 449 63 del 2000;
#X obj 210 63 cyclone/scale 0 4 30 500;
#X obj 17 230 cyclone/scale 0 4 0 1;
#X obj 1412 362 cyclone/scale 0 1 0 500;
#X obj 365 1034 cyclone/scale 0 1 0.15 0.2;
#X obj 365 1055 cyclone/speedlim 100;
#X obj 707 902 cyclone/scale 0 1 0.15 0.95;
#X obj 708 841 cyclone/speedlim 100;
#X connect 0 0 7 0;
#X connect 0 0 97 0;
#X connect 1 0 28 0;
#X connect 2 0 17 0;
#X connect 4 0 20 0;
#X connect 5 0 58 0;
#X connect 7 0 1 0;
#X connect 7 0 5 0;
#X connect 7 0 11 0;
#X connect 7 0 8 0;
#X connect 8 0 9 0;
#X connect 10 0 23 0;
#X connect 11 0 13 0;
#X connect 14 0 10 1;
#X connect 14 0 90 1;
#X connect 15 0 23 1;
#X connect 15 0 91 1;
#X connect 16 0 24 1;
#X connect 21 0 31 0;
#X connect 21 0 50 0;
#X connect 23 0 94 0;
#X connect 24 0 25 0;
#X connect 24 1 25 1;
#X connect 27 0 25 2;
#X connect 30 0 89 0;
#X connect 31 0 88 0;
#X connect 32 0 30 1;
#X connect 32 0 47 1;
#X connect 32 0 49 0;
#X connect 33 0 36 0;
#X connect 34 0 33 0;
#X connect 34 1 33 1;
#X connect 35 0 104 0;
#X connect 36 0 35 0;
#X connect 37 0 39 0;
#X connect 38 0 101 0;
#X connect 39 0 38 0;
#X connect 40 0 37 0;
#X connect 41 0 103 0;
#X connect 42 0 41 0;
#X connect 43 0 68 0;
#X connect 44 0 43 0;
#X connect 45 0 46 0;
#X connect 46 0 47 0;
#X connect 47 0 1 0;
#X connect 48 0 30 0;
#X connect 49 0 48 1;
#X connect 50 0 88 1;
#X connect 55 0 88 2;
#X connect 56 0 70 1;
#X connect 59 0 60 0;
#X connect 60 0 98 3;
#X connect 61 0 62 0;
#X connect 62 0 98 4;
#X connect 63 0 64 0;
#X connect 64 0 100 3;
#X connect 65 0 66 0;
#X connect 66 0 100 4;
#X connect 67 0 96 1;
#X connect 69 0 90 0;
#X connect 70 0 10 0;
#X connect 72 0 73 0;
#X connect 73 0 74 0;
#X connect 74 0 75 0;
#X connect 75 0 11 0;
#X connect 76 0 77 0;
#X connect 77 0 78 0;
#X connect 78 0 79 0;
#X connect 79 0 100 0;
#X connect 80 0 82 0;
#X connect 81 0 5 0;
#X connect 82 0 81 0;
#X connect 84 0 32 0;
#X connect 85 0 98 0;
#X connect 85 0 99 0;
#X connect 86 0 57 0;
#X connect 86 1 92 0;
#X connect 86 2 93 0;
#X connect 86 3 72 0;
#X connect 86 4 72 1;
#X connect 86 5 73 1;
#X connect 86 6 74 1;
#X connect 86 7 82 1;
#X connect 86 8 59 0;
#X connect 86 9 61 0;
#X connect 86 10 63 0;
#X connect 86 11 69 1;
#X connect 86 12 69 2;
#X connect 86 13 76 0;
#X connect 86 14 76 1;
#X connect 86 15 77 1;
#X connect 86 16 79 1;
#X connect 86 16 65 0;
#X connect 87 0 86 0;
#X connect 88 0 48 0;
#X connect 89 0 70 0;
#X connect 89 1 69 0;
#X connect 90 0 91 0;
#X connect 91 0 95 0;
#X connect 92 0 94 1;
#X connect 93 0 95 1;
#X connect 94 0 96 0;
#X connect 95 0 96 0;
#X connect 96 0 24 0;
#X connect 97 0 52 0;
#X connect 98 0 4 0;
#X connect 99 0 2 0;
#X connect 99 0 40 0;
#X connect 99 0 34 0;
#X connect 100 0 8 0;
#X connect 101 0 102 0;
#X connect 102 0 44 0;
#X connect 103 0 45 0;
#X connect 104 0 42 0;
#X coords 0 -1 1 1 450 225 1 175 100;
