#N canvas 744 919 1023 386 12;
#X obj 19 111 cyclone/mousestate, f 115;
#X obj 19 66 tgl 15 0 empty empty empty 17 7 0 10 -262144 -1 -1 1 1
;
#X obj 19 18 loadbang;
#X msg 19 42 1;
#X obj 19 138 tgl 15 0 empty empty empty 17 7 0 10 -262144 -1 -1 0
1;
#X floatatom 196 138 5 0 0 0 - - -;
#X floatatom 405 138 5 0 0 0 - - -;
#X floatatom 614 138 5 0 0 0 - - -;
#X floatatom 824 138 5 0 0 0 - - -;
#X obj 19 316 pack 0 0 0 0 0, f 120;
#X obj 19 343 s mouseData;
#X obj 196 165 t b f;
#X obj 405 165 t b f;
#X obj 614 165 t b f;
#X obj 824 165 t b f;
#X obj 228 288 cyclone/speedlim 10;
#X obj 437 288 cyclone/speedlim 10;
#X obj 646 288 cyclone/speedlim 10;
#X obj 856 288 cyclone/speedlim 10;
#X obj 19 86 metro 10;
#X connect 0 0 4 0;
#X connect 0 1 5 0;
#X connect 0 2 6 0;
#X connect 0 3 7 0;
#X connect 0 4 8 0;
#X connect 1 0 19 0;
#X connect 2 0 3 0;
#X connect 3 0 1 0;
#X connect 4 0 9 0;
#X connect 5 0 11 0;
#X connect 6 0 12 0;
#X connect 7 0 13 0;
#X connect 8 0 14 0;
#X connect 9 0 10 0;
#X connect 11 0 9 0;
#X connect 11 1 15 0;
#X connect 12 0 9 0;
#X connect 12 1 16 0;
#X connect 13 0 9 0;
#X connect 13 1 17 0;
#X connect 14 0 9 0;
#X connect 14 1 18 0;
#X connect 15 0 9 1;
#X connect 16 0 9 2;
#X connect 17 0 9 3;
#X connect 18 0 9 4;
#X connect 19 0 0 0;
