#N canvas 0 123 1280 453 10;
#X obj 121 260 route /wek/outputs;
#X obj 507 212 sel 1, f 34;
#X msg 507 233 /wekinator/control/startRunning;
#X msg 708 233 /wekinator/control/stopRunning;
#X obj 905 212 sel 1, f 40;
#X msg 1373 233 /wekinator/control/train;
#X obj 121 363 outlet;
#X msg 121 197 port \$1;
#X floatatom 230 117 7 0 0 0 - - -;
#N canvas 410 177 212 193 initMemory 0;
#X obj 87 32 inlet;
#X obj 28 32 loadbang;
#X msg 87 57 set \$1;
#X msg 87 78 12002;
#X obj 87 99 outlet;
#X connect 0 0 2 0;
#X connect 1 0 3 0;
#X connect 2 0 3 0;
#X connect 3 0 4 0;
#X restore 33 117 pd initMemory;
#X floatatom 402 116 5 0 1 0 - - -;
#X text 148 117 Incoming Port;
#X obj 337 261 t f b;
#X msg 364 285 disconnect;
#X floatatom 230 137 6 0 0 0 - - -;
#X msg 337 310 connect localhost \$1;
#N canvas 0 23 212 193 initMemory 0;
#X obj 87 32 inlet;
#X obj 28 32 loadbang;
#X msg 87 57 set \$1;
#X msg 87 78 6450;
#X obj 87 99 outlet;
#X connect 0 0 2 0;
#X connect 1 0 3 0;
#X connect 2 0 3 0;
#X connect 3 0 4 0;
#X restore 33 137 pd initMemory;
#X text 148 137 Outgoing Port;
#X obj 419 95 bng 15 250 50 0 empty empty empty 17 7 0 10 -262144 -4032
-1;
#X text 385 95 Train;
#X obj 339 95 tgl 15 0 empty empty empty 17 7 0 10 -262144 -258113
-1 0 1;
#X text 299 95 Record;
#X obj 259 95 tgl 15 0 empty empty empty 17 7 0 10 -262144 -4034 -1
0 1;
#X obj 259 13 loadbang;
#X msg 259 34 0;
#X text 237 95 Run;
#X obj 173 363 outlet;
#X floatatom 354 137 5 0 1 0 - - -;
#X floatatom 402 137 5 0 1 0 - - -;
#X obj 450 212 t b f;
#X obj 121 308 unpack f f f, f 18;
#X msg 402 261 /wekinator/control/outputs \$1 \$2 \$3;
#X obj 226 363 outlet;
#X obj 121 337 spigot;
#X obj 173 337 spigot;
#X obj 226 337 spigot;
#X obj 402 233 pack f f f, f 13;
#X obj 402 212 t b f;
#X obj 121 239 osc/unpackOSC;
#X text 350 116 Rotation;
#X text 296 137 Board X/Y;
#X obj 121 218 iemnet/udpreceive 12002;
#X text 122 71 # Weki remote only. Camera data handled in Python;
#X msg 905 233 /wekinator/control/startRecording;
#X msg 1141 233 /wekinator/control/stopRecording;
#X obj 337 363 osc/packOSC;
#X obj 337 384 iemnet/udpsend;
#X connect 0 0 30 0;
#X connect 1 0 2 0;
#X connect 1 1 3 0;
#X connect 2 0 45 0;
#X connect 3 0 45 0;
#X connect 4 0 43 0;
#X connect 4 1 44 0;
#X connect 5 0 45 0;
#X connect 7 0 41 0;
#X connect 8 0 7 0;
#X connect 8 0 9 0;
#X connect 9 0 8 0;
#X connect 10 0 36 0;
#X connect 12 0 15 0;
#X connect 12 1 13 0;
#X connect 13 0 46 0;
#X connect 14 0 12 0;
#X connect 14 0 16 0;
#X connect 15 0 46 0;
#X connect 16 0 14 0;
#X connect 18 0 5 0;
#X connect 20 0 4 0;
#X connect 22 0 1 0;
#X connect 22 0 33 1;
#X connect 22 0 35 1;
#X connect 22 0 34 1;
#X connect 23 0 24 0;
#X connect 24 0 22 0;
#X connect 24 0 20 0;
#X connect 27 0 37 0;
#X connect 28 0 29 0;
#X connect 29 0 36 0;
#X connect 29 1 36 2;
#X connect 30 0 33 0;
#X connect 30 1 34 0;
#X connect 30 2 35 0;
#X connect 31 0 45 0;
#X connect 33 0 6 0;
#X connect 33 0 10 0;
#X connect 34 0 26 0;
#X connect 34 0 27 0;
#X connect 35 0 32 0;
#X connect 35 0 28 0;
#X connect 36 0 31 0;
#X connect 37 0 36 0;
#X connect 37 1 36 1;
#X connect 38 0 0 0;
#X connect 41 0 38 0;
#X connect 43 0 45 0;
#X connect 44 0 45 0;
#X connect 45 0 46 0;
#X coords 0 -1 1 1 350 100 1 120 60;
