#N canvas 683 210 539 568 10;
#X msg 20 178 port \$1;
#X floatatom 293 56 10 0 25000 0 - - -;
#X text 14 34 * May need to edit this patcher to fit OSC bundle details
;
#X text 187 56 OSC Receive Port:;
#X obj 370 15 loadbang;
#X msg 370 35 8000;
#X obj 20 320 route /trigger /pitch /spectrum, f 49;
#X obj 20 528 s triggerData;
#X obj 117 527 s pitchData;
#X obj 214 527 s spectrumData;
#X obj 214 418 route 1 2 3 4 5 6 7 8 9 10 11 12 13 14 15 16 17 0,
f 50;
#X obj 214 446 pack f f f f f f f f f f f f f f f f f f, f 47;
#X obj 20 199 iemnet/udpreceive 8000;
#X obj 20 289 osc/unpackOSC;
#X connect 0 0 12 0;
#X connect 1 0 0 0;
#X connect 4 0 5 0;
#X connect 5 0 1 0;
#X connect 6 0 7 0;
#X connect 6 1 8 0;
#X connect 6 2 10 0;
#X connect 10 0 11 0;
#X connect 10 1 11 1;
#X connect 10 2 11 2;
#X connect 10 3 11 3;
#X connect 10 4 11 4;
#X connect 10 5 11 5;
#X connect 10 6 11 6;
#X connect 10 7 11 7;
#X connect 10 8 11 8;
#X connect 10 9 11 9;
#X connect 10 10 11 10;
#X connect 10 11 11 11;
#X connect 10 12 11 12;
#X connect 10 13 11 13;
#X connect 10 14 11 14;
#X connect 10 15 11 15;
#X connect 10 16 11 16;
#X connect 10 17 11 17;
#X connect 11 0 9 0;
#X connect 12 0 13 0;
#X connect 13 0 6 0;
#X coords 0 -1 1 1 350 65 1 10 10;
